<svg xmlns="http://www.w3.org/2000/svg" viewBox="0 0 794.23 412.94"><defs><style>.cls-1{fill:#d5dee1;}.cls-2{opacity:0.79;}.cls-3,.cls-6{fill:#f7cda2;}.cls-3,.cls-5,.cls-8{stroke:#1a1a1a;stroke-miterlimit:10;stroke-width:3px;}.cls-4{fill:#1a1a1a;}.cls-5{fill:#efa457;}.cls-7{fill:#b4c6ca;}.cls-8{fill:none;}.cls-9{fill:#677c75;}</style></defs><title>bouwpiramides</title><g id="Laag_2" data-name="Laag 2"><g id="Laag_1-2" data-name="Laag 1"><rect class="cls-1" x="1.08" width="790.64" height="332.87"/><g class="cls-2"><polygon class="cls-3" points="287.36 332.34 499.37 332.34 393.36 206.59 391.59 208.69 287.36 332.34"/><path class="cls-4" d="M100.31,321.75l28-.13a1.13,1.13,0,0,0,0-2.25l-28,.13a1.13,1.13,0,0,0,0,2.25Z"/><polygon class="cls-5" points="287.36 332.34 346.32 332.34 393.64 208.21 391.59 208.69 287.36 332.34"/><polygon class="cls-3" points="23.69 332.34 229.19 332.34 126.44 206.59 124.72 208.69 23.69 332.34"/><polygon class="cls-3" points="114.78 332.34 414.11 332.34 264.44 149.18 261.93 152.24 114.78 332.34"/><polygon class="cls-5" points="23.69 332.34 80.85 332.34 126.71 208.21 124.72 208.69 23.69 332.34"/><path class="cls-4" d="M414.37,321.71q28.59-.65,57.21-.19a1.13,1.13,0,0,0,0-2.25q-28.6-.45-57.21.19a1.13,1.13,0,0,0,0,2.25Z"/><path class="cls-4" d="M453.58,313.15h15.64a1.13,1.13,0,0,0,0-2.25H453.58a1.13,1.13,0,0,0,0,2.25Z"/><path class="cls-4" d="M436.86,302.86l23.36.1a1.13,1.13,0,0,0,0-2.25l-23.36-.1a1.13,1.13,0,0,0,0,2.25Z"/><path class="cls-4" d="M405.14,312.76l23.08.12a1.13,1.13,0,0,0,0-2.25l-23.08-.12a1.13,1.13,0,0,0,0,2.25Z"/><path class="cls-4" d="M397.93,303l13,.09a1.13,1.13,0,0,0,0-2.25l-13-.09a1.13,1.13,0,0,0,0,2.25Z"/><path class="cls-4" d="M390.82,292.16l31.63.27a1.13,1.13,0,0,0,0-2.25l-31.63-.27a1.13,1.13,0,0,0,0,2.25Z"/><path class="cls-4" d="M435.9,285.39l11.87.07a1.13,1.13,0,0,0,0-2.25l-11.87-.07a1.13,1.13,0,0,0,0,2.25Z"/><path class="cls-4" d="M428.22,271.47l8.79,0a1.13,1.13,0,0,0,0-2.25l-8.79,0a1.13,1.13,0,0,0,0,2.25Z"/><path class="cls-4" d="M402.29,284.29l16.32.15a1.13,1.13,0,0,0,0-2.25L402.29,282a1.13,1.13,0,0,0,0,2.25Z"/><path class="cls-4" d="M399.62,277.26l24.5.3a1.13,1.13,0,0,0,0-2.25l-24.5-.3a1.13,1.13,0,0,0,0,2.25Z"/><path class="cls-4" d="M394.94,260.35l27.51.34a1.13,1.13,0,0,0,0-2.25l-27.51-.34a1.13,1.13,0,0,0,0,2.25Z"/><path class="cls-4" d="M382.44,270l22.71.26a1.13,1.13,0,0,0,0-2.25l-22.71-.26a1.13,1.13,0,0,0,0,2.25Z"/><path class="cls-4" d="M403.23,251l22.15.26a1.13,1.13,0,0,0,0-2.25l-22.15-.26a1.13,1.13,0,0,0,0,2.25Z"/><path class="cls-4" d="M397.43,241l10.83.05a1.13,1.13,0,0,0,0-2.25l-10.83-.05a1.13,1.13,0,0,0,0,2.25Z"/><path class="cls-4" d="M399.37,230.22h8.37a1.13,1.13,0,0,0,0-2.25h-8.37a1.13,1.13,0,0,0,0,2.25Z"/><path class="cls-4" d="M224.57,315.69q31.82-.26,63.65-.35t63.67,0q18,0,35.95.15a1.13,1.13,0,0,0,0-2.25q-31.83-.18-63.66-.19t-63.67.15q-18,.09-35.94.24a1.13,1.13,0,0,0,0,2.25Z"/><path class="cls-4" d="M249.11,303.68l53.23-.09,15.25,0a1.13,1.13,0,0,0,0-2.25l-53.24.1-15.24,0a1.13,1.13,0,0,0,0,2.25Z"/><path class="cls-4" d="M347.88,303.92l21.69-.13a1.13,1.13,0,0,0,0-2.25l-21.69.13a1.13,1.13,0,0,0,0,2.25Z"/><path class="cls-4" d="M259.82,288.54l28-.13a1.13,1.13,0,0,0,0-2.25l-28,.13a1.13,1.13,0,0,0,0,2.25Z"/><path class="cls-4" d="M320.1,289.5l37.93-.13a1.13,1.13,0,0,0,0-2.25l-37.93.13a1.13,1.13,0,0,0,0,2.25Z"/><path class="cls-4" d="M245.32,273.75l56.95-.12a1.13,1.13,0,0,0,0-2.25l-56.95.12a1.13,1.13,0,0,0,0,2.25Z"/><path class="cls-4" d="M270.93,262.34l40.95-.13a1.13,1.13,0,0,0,0-2.25l-40.95.13a1.13,1.13,0,0,0,0,2.25Z"/><path class="cls-4" d="M322.19,264.26l18.54-.13a1.13,1.13,0,0,0,0-2.25l-18.54.13a1.13,1.13,0,0,0,0,2.25Z"/><path class="cls-4" d="M310.92,245l12.17-.13a1.13,1.13,0,0,0,0-2.25l-12.17.13a1.13,1.13,0,0,0,0,2.25Z"/><path class="cls-4" d="M267.46,251.89l38.65-.13a1.13,1.13,0,0,0,0-2.25l-38.65.13a1.13,1.13,0,0,0,0,2.25Z"/><path class="cls-4" d="M244.85,242.29l32.42-.13a1.13,1.13,0,0,0,0-2.25l-32.42.13a1.13,1.13,0,0,0,0,2.25Z"/><path class="cls-4" d="M260.47,228.83l41.8-.13a1.13,1.13,0,0,0,0-2.25l-41.8.13a1.13,1.13,0,0,0,0,2.25Z"/><path class="cls-4" d="M275.86,215.28l32.41-.13a1.13,1.13,0,0,0,0-2.25l-32.41.13a1.13,1.13,0,0,0,0,2.25Z"/><path class="cls-4" d="M266,200.83l16.07-.14a1.13,1.13,0,0,0,0-2.25l-16.07.14a1.13,1.13,0,0,0,0,2.25Z"/><path class="cls-4" d="M269.58,186.41l13.94-.14a1.13,1.13,0,0,0,0-2.25l-13.94.14a1.13,1.13,0,0,0,0,2.25Z"/><path class="cls-4" d="M116,312.76l28-.13a1.13,1.13,0,0,0,0-2.25l-28,.13a1.13,1.13,0,0,0,0,2.25Z"/><path class="cls-4" d="M123.47,302.42l28-.13a1.13,1.13,0,0,0,0-2.25l-28,.13a1.13,1.13,0,0,0,0,2.25Z"/><path class="cls-4" d="M113.86,291.85l36.49-.13a1.13,1.13,0,0,0,0-2.25l-36.49.13a1.13,1.13,0,0,0,0,2.25Z"/><path class="cls-4" d="M131.16,284.15l28-.13a1.13,1.13,0,0,0,0-2.25l-28,.13a1.13,1.13,0,0,0,0,2.25Z"/><path class="cls-4" d="M129.2,277.49l25.71-.13a1.13,1.13,0,0,0,0-2.25l-25.71.13a1.13,1.13,0,0,0,0,2.25Z"/><path class="cls-4" d="M110.93,270.24l25.83-.13a1.13,1.13,0,0,0,0-2.25l-25.83.13a1.13,1.13,0,0,0,0,2.25Z"/><path class="cls-4" d="M123.42,261l28.85-.13a1.13,1.13,0,0,0,0-2.25l-28.85.13a1.13,1.13,0,0,0,0,2.25Z"/><path class="cls-4" d="M159,271.56l7.7-.14a1.13,1.13,0,0,0,0-2.25l-7.7.14a1.13,1.13,0,1,0,0,2.25Z"/><path class="cls-4" d="M132.22,230.34l7.7-.14a1.13,1.13,0,1,0,0-2.25l-7.7.14a1.13,1.13,0,0,0,0,2.25Z"/><path class="cls-4" d="M127.41,241.87l11.4-.13a1.13,1.13,0,0,0,0-2.25l-11.4.13a1.13,1.13,0,0,0,0,2.25Z"/><path class="cls-4" d="M135.18,251.49l22.86-.08a1.13,1.13,0,0,0,0-2.25l-22.86.08a1.13,1.13,0,0,0,0,2.25Z"/><polygon class="cls-5" points="114.78 332.34 198.03 332.34 264.84 151.54 261.93 152.24 114.78 332.34"/></g><rect class="cls-6" x="1.08" y="334.87" width="793" height="78"/><path class="cls-7" d="M793,367.41c-3.59,1.11-7.34,2.25-12.08,3.7-5.92-1.33-11.62-2.53-17.11-3.7-7.81-1.66-15.17-3.29-22-5.26-36.34-10.53-59.11-10.74-94.46-.18a216.87,216.87,0,0,1-22.24,5.44,162.15,162.15,0,0,1-61.32,0,206.73,206.73,0,0,1-21.09-5.14c-36.58-10.84-58.39-10.89-94.09-.21a209.55,209.55,0,0,1-21.93,5.35,162.67,162.67,0,0,1-61.34,0,204.61,204.61,0,0,1-21.4-5.23c-35.86-10.72-58.74-10.76-94.32-.14a211.63,211.63,0,0,1-22,5.37,160.61,160.61,0,0,1-60.87,0,212,212,0,0,1-21.66-5.29c-36-10.71-58.25-10.69-94.15.05a202.89,202.89,0,0,1-21.44,5.24,168.75,168.75,0,0,1-28.45,2.86s26.44-9.63,40.34-13.75c43.36-12.84,69.88-12.86,112.8,0,29.14,8.71,56.93,8.72,86.2,0,43.41-12.86,69.05-12.86,112.76,0,29.58,8.71,56.51,8.66,86-.17,42.4-12.7,69.72-12.63,112.87.22,29,8.67,56.4,8.61,86.12-.19,43-12.76,68.63-12.56,112.92.16,9.47,2.73,21.28,3.89,31.59,6.15C787.1,363.66,793.44,367.29,793,367.41Z"/><path class="cls-7" d="M166.78,367.4H29.53A203.39,203.39,0,0,0,51,362.17c35.89-10.74,58.14-10.77,94.14-.05A212.73,212.73,0,0,0,166.78,367.4Z"/><path class="cls-7" d="M365.37,367.4H227.66a210.34,210.34,0,0,0,22-5.37c35.58-10.61,58.45-10.58,94.31.15A204.34,204.34,0,0,0,365.37,367.4Z"/><path class="cls-7" d="M563.84,367.4H426.73a208.27,208.27,0,0,0,21.93-5.35c35.69-10.67,57.5-10.62,94.08.22A208.16,208.16,0,0,0,563.84,367.4Z"/><path class="cls-7" d="M763.83,367.4H625.14A213.72,213.72,0,0,0,647.39,362c35.35-10.57,58.13-10.35,94.45.17C748.66,364.11,756,365.75,763.83,367.4Z"/><rect class="cls-7" x="1.08" y="367.41" width="793.15" height="45.53"/><line class="cls-8" x1="1.08" y1="332.87" x2="794.08" y2="334.87"/><path class="cls-4" d="M1.68,370.84A193.82,193.82,0,0,1,148.8,352.36c24.89,6.85,49.26,16.64,75.54,12.7,13.29-2,26.07-6.38,39.34-8.46,13.81-2.16,27.81-1.33,41.58.7,25.82,3.8,51.26,11.36,77.58,10.49,25.66-.86,50.4-8.5,75.27-14.14,12.78-2.9,25.73-5.34,38.86-6a143.53,143.53,0,0,1,39.54,4c25.62,6,50.27,14.83,77,12.76s52.79-11.35,79.88-10.67c26.6.67,52,9.91,78.28,12.95a133.14,133.14,0,0,0,20.06.87c1.45-.05,1.45-2.3,0-2.25-27.33.94-53.37-8.27-80.14-12.16a145.25,145.25,0,0,0-39.35-.45c-13,1.64-25.8,4.54-38.71,6.8-13.8,2.41-27.74,3.91-41.73,2.43-13.64-1.44-26.9-5.22-40.11-8.74-12.28-3.28-24.66-6.43-37.36-7.54s-25.2-.08-37.62,2c-25.64,4.18-50.4,12.61-76.13,16.27a156.85,156.85,0,0,1-40.61.54c-13.63-1.59-27-4.55-40.53-7.05-12.82-2.37-25.81-4.39-38.88-4.37s-25.8,2.88-38.54,6c-13.28,3.25-26.44,5.74-40.16,4.34-13.87-1.4-27.25-5.7-40.54-9.72-24.22-7.32-48.52-11.64-73.91-10.3a196.54,196.54,0,0,0-70.11,16.94C11.57,362.89,6,365.78.55,368.9a1.12,1.12,0,0,0,1.13,1.94Z"/><path class="cls-4" d="M487.53,334c1-9.45,3.34-20.22,12-25.67,1.63-1,.13-3.62-1.51-2.59-9.65,6.08-12.31,17.67-13.48,28.26-.22,1.92,2.79,1.9,3,0Z"/><path class="cls-9" d="M498.37,306.88a17.73,17.73,0,0,0-14.75,3.29A12.07,12.07,0,0,1,501.09,303a17,17,0,0,0-11.8-7.59,25.69,25.69,0,0,1,6.29-2.09,8.8,8.8,0,0,1,6.37,1.23c2.72,1.94,3.53,5.65,3.4,9a10.21,10.21,0,0,1,12,9.89c-3.52-3.67-8.9-4.72-13.91-5.58,2.39,1.59,3.35,4.76,3,7.6a17.47,17.47,0,0,1-3.6,7.71,29.11,29.11,0,0,0,0-8.44,9.82,9.82,0,0,0-4.53-6.84"/><path class="cls-4" d="M498.67,305.79a19.05,19.05,0,0,0-15.62,3.41l1.65,1.27A11.1,11.1,0,0,1,500.53,304c.94.51,2.18-.55,1.53-1.54a18.25,18.25,0,0,0-12.47-8.1l.26,2.05c3.28-1.41,7.42-3.16,10.87-1.27,3,1.62,3.59,5.35,3.51,8.43a1.14,1.14,0,0,0,1.42,1.09,9.19,9.19,0,0,1,10.55,8.8l1.92-.8c-3.81-3.86-9.24-5-14.4-5.86a1.13,1.13,0,0,0-.86,2.06c4.88,3.44,1.6,10.1-1.06,13.76l2.1.57c.55-5.79.64-12.93-5.11-16.25a1.13,1.13,0,0,0-1.14,1.94c5,2.87,4.46,9.42,4,14.31-.12,1.23,1.52,1.37,2.1.57,2-2.74,3.78-5.88,3.84-9.36a8.84,8.84,0,0,0-3.6-7.49l-.87,2.06c4.75.81,9.89,1.72,13.41,5.28a1.13,1.13,0,0,0,1.92-.79,11.48,11.48,0,0,0-13.4-11l1.43,1.08c.11-3.88-1-8.36-4.62-10.37-4.26-2.34-9.06-.48-13.14,1.27a1.14,1.14,0,0,0,.27,2.06,16.12,16.12,0,0,1,11.13,7.07l1.54-1.54a13.38,13.38,0,0,0-19.13,7.83c-.27.86.85,1.88,1.65,1.27A16.93,16.93,0,0,1,498.07,308c1.42.31,2-1.86.6-2.17Z"/><path class="cls-4" d="M460.63,332.87c-1.18-10.59-3.83-22.18-13.49-28.26-1.64-1-3.14,1.56-1.51,2.59,8.65,5.45,10.95,16.22,12,25.67.21,1.9,3.21,1.92,3,0Z"/><path class="cls-9" d="M446.78,305.74A17.79,17.79,0,0,1,461.54,309a12.09,12.09,0,0,0-17.48-7.15,17,17,0,0,1,11.81-7.59,25.91,25.91,0,0,0-6.3-2.09,8.7,8.7,0,0,0-6.37,1.23c-2.72,1.94-3.53,5.65-3.4,9a10.21,10.21,0,0,0-12,9.88c3.52-3.67,8.9-4.71,13.91-5.57-2.39,1.58-3.35,4.76-3,7.6a17.38,17.38,0,0,0,3.61,7.71,28.76,28.76,0,0,1,0-8.44,9.82,9.82,0,0,1,4.53-6.84"/><path class="cls-4" d="M447.08,306.82A16.9,16.9,0,0,1,461,310c.79.61,1.92-.4,1.65-1.27a13.38,13.38,0,0,0-19.13-7.83l1.54,1.54a16.16,16.16,0,0,1,11.13-7.08,1.13,1.13,0,0,0,.27-2.05c-4.08-1.76-8.87-3.61-13.13-1.27-3.68,2-4.73,6.49-4.62,10.37l1.42-1.09a11.5,11.5,0,0,0-13.4,11,1.13,1.13,0,0,0,1.92.8c3.52-3.56,8.67-4.47,13.41-5.28l-.87-2.06a8.8,8.8,0,0,0-3.6,7.49c.07,3.48,1.85,6.61,3.84,9.35.59.8,2.22.67,2.1-.56-.46-4.89-1-11.44,4-14.31a1.12,1.12,0,0,0-1.13-1.94c-5.76,3.32-5.67,10.46-5.12,16.25l2.1-.57c-2.66-3.66-5.94-10.32-1.05-13.77a1.13,1.13,0,0,0-.87-2.05c-5.16.88-10.58,2-14.4,5.86l1.92.79a9.2,9.2,0,0,1,10.55-8.8,1.14,1.14,0,0,0,1.43-1.08c-.09-3.06.53-6.83,3.5-8.43,3.48-1.87,7.57-.15,10.87,1.27l.27-2.06a18.29,18.29,0,0,0-12.48,8.11c-.65,1,.6,2,1.54,1.54a11.1,11.1,0,0,1,15.82,6.48l1.65-1.27a19.09,19.09,0,0,0-15.62-3.4c-1.42.31-.82,2.48.6,2.17Z"/><path class="cls-4" d="M469,332.34c-.25-6.45-.58-12.9-.72-19.35-.13-5.89.09-12,2.48-17.49.77-1.75-1.82-3.28-2.59-1.51-2.5,5.73-3,11.92-2.9,18.11.09,6.75.47,13.5.73,20.24.08,1.92,3.08,1.93,3,0Z"/><path class="cls-9" d="M469.51,294.72a11.9,11.9,0,0,0-15,8.42,16.16,16.16,0,0,1,1.53-9.55,10.28,10.28,0,0,1,4-4.51,6.06,6.06,0,0,1,5.85-.19c-.5-2.5-3.33-3.73-5.83-4.21a27.84,27.84,0,0,0-6.94-.45c.61-3.41,4.22-5.83,7.69-5.62a10.19,10.19,0,0,1,8.1,5.77,11.79,11.79,0,0,0-2.7-10.24c2.61-.07,4.89,2,5.89,4.4s1,5.09,1,7.7a12.24,12.24,0,0,1,14.7,7.18,15.1,15.1,0,0,0-12.06-.05,24.87,24.87,0,0,1,5.41,17.37A35.74,35.74,0,0,0,467.82,295"/><path class="cls-4" d="M469.81,293.63a13.21,13.21,0,0,0-16.34,9.21l2.21.3a15.25,15.25,0,0,1,1.83-9.83c1.55-2.64,4.7-5.08,7.84-3.45a1.14,1.14,0,0,0,1.65-1.27c-1.34-5.48-9.43-5.71-13.85-5.48l1.09,1.42a6.3,6.3,0,0,1,6.42-4.8c3.23.11,5.88,2.48,7.3,5.22a1.14,1.14,0,0,0,2.06-.27,13.18,13.18,0,0,0-3-11.34l-.8,1.92c5.45.05,5.78,7.07,5.77,11a1.14,1.14,0,0,0,1.42,1.09,11.14,11.14,0,0,1,13.32,6.39l1.65-1.28a16.49,16.49,0,0,0-12.93-.15,1.15,1.15,0,0,0-.5,1.88,23.93,23.93,0,0,1,5.08,16.57l2.1-.57A37.12,37.12,0,0,0,468.39,294c-1.22-.8-2.35,1.15-1.14,1.94a35,35,0,0,1,12.95,15.35c.49,1.11,2,.42,2.1-.57a26.2,26.2,0,0,0-5.74-18.16l-.49,1.88a14.32,14.32,0,0,1,11.2-.07c.78.33,2-.24,1.65-1.27a13.43,13.43,0,0,0-16.09-8l1.43,1.08c0-3.11,0-6.46-1.64-9.23a7.63,7.63,0,0,0-6.38-4,1.14,1.14,0,0,0-.8,1.92,10.76,10.76,0,0,1,2.41,9.15l2.06-.27c-1.84-3.53-5.47-6.39-9.6-6.33a8.54,8.54,0,0,0-8.24,6.46,1.14,1.14,0,0,0,1.08,1.42,25,25,0,0,1,7.47.59c1.77.45,3.74,1.3,4.21,3.24l1.65-1.27c-3.69-1.92-7.71-.13-10.06,3a16.81,16.81,0,0,0-3,12.24c.15,1.18,1.84,1.63,2.21.3a10.93,10.93,0,0,1,13.58-7.64,1.12,1.12,0,0,0,.59-2.17Z"/><path class="cls-4" d="M305.62,333.61c-1.17-10.59-3.83-22.18-13.48-28.27-1.64-1-3.15,1.57-1.52,2.59,8.66,5.46,10.95,16.22,12,25.68.21,1.9,3.21,1.92,3,0Z"/><path class="cls-9" d="M291.77,306.47a17.79,17.79,0,0,1,14.76,3.29,12.09,12.09,0,0,0-17.48-7.15A17,17,0,0,1,300.86,295a25.86,25.86,0,0,0-6.29-2.1,8.74,8.74,0,0,0-6.37,1.24c-2.72,1.94-3.53,5.65-3.41,9a10.18,10.18,0,0,0-12,9.88c3.52-3.67,8.89-4.71,13.9-5.57-2.39,1.58-3.35,4.76-3,7.6a17.46,17.46,0,0,0,3.61,7.7,29.11,29.11,0,0,1,0-8.44,9.85,9.85,0,0,1,4.54-6.83"/><path class="cls-4" d="M292.07,307.56A16.92,16.92,0,0,1,306,310.73c.8.61,1.93-.39,1.66-1.27a13.38,13.38,0,0,0-19.13-7.82l1.53,1.53a16.14,16.14,0,0,1,11.14-7.07,1.13,1.13,0,0,0,.27-2.05c-4.08-1.76-8.88-3.61-13.14-1.28-3.67,2-4.73,6.49-4.62,10.38l1.42-1.09a11.49,11.49,0,0,0-13.4,11,1.14,1.14,0,0,0,1.92.8c3.53-3.57,8.67-4.47,13.41-5.29l-.86-2.05a8.8,8.8,0,0,0-3.6,7.49c.07,3.48,1.85,6.61,3.84,9.35.58.8,2.21.66,2.1-.57-.47-4.89-1-11.43,4-14.3a1.13,1.13,0,0,0-1.14-1.94c-5.75,3.32-5.66,10.46-5.11,16.24l2.09-.56c-2.66-3.67-5.93-10.32-1-13.77a1.13,1.13,0,0,0-.87-2.06c-5.15.89-10.58,2-14.4,5.87l1.92.79a9.2,9.2,0,0,1,10.56-8.8,1.14,1.14,0,0,0,1.42-1.08c-.09-3.07.53-6.84,3.51-8.43,3.47-1.87,7.57-.15,10.86,1.27l.27-2.06A18.3,18.3,0,0,0,288.08,302c-.64,1,.6,2,1.54,1.54a11.1,11.1,0,0,1,15.83,6.48l1.65-1.27a19.06,19.06,0,0,0-15.63-3.4c-1.41.31-.81,2.48.6,2.17Z"/></g></g></svg>