<svg xmlns="http://www.w3.org/2000/svg" viewBox="0 0 283.68 82.83"><defs><style>.cls-1{font-size:48.15px;font-family:Agenda-Bold, Agenda;font-weight:700;}.cls-1,.cls-3{fill:#b5c6cb;}.cls-2{letter-spacing:-0.07em;}.cls-4{font-size:23.11px;fill:#3c3c3b;font-family:ProximaSoft-Light, Proxima Soft;font-weight:300;}</style></defs><title>Middel 9</title><g id="Laag_2" data-name="Laag 2"><g id="Laag_1-2" data-name="Laag 1"><text class="cls-1" transform="translate(31.71 47.47) scale(1 1.16)">NIPI DE<tspan class="cls-2" x="149.59" y="0">LT</tspan><tspan x="189.98" y="0">A</tspan></text><path class="cls-3" d="M11.17,67.11A65.8,65.8,0,0,0,39,62c3.47-1.48,6.79-3.15,10.42-4.39A42.33,42.33,0,0,1,80.93,58.7c6,2.56,11.66,5.52,18.56,6.84,15.59,3,30.59,2.29,44.62-3.71,3.24-1.39,6.34-3,9.74-4.15a42.23,42.23,0,0,1,31.46,1c6,2.56,11.64,5.52,18.55,6.86,15.68,3,30.74,2.32,44.82-3.77,1.8-.78,3.62-1.53,5.36-2.37a40.93,40.93,0,0,1,18.48-4.16v-15a59.94,59.94,0,0,0-20.46,2.7,150.17,150.17,0,0,0-14.28,5.72c-8.16,3.68-16.95,4.34-26.13,2.68a43,43,0,0,1-8.87-3c-5.8-2.42-11.29-5.23-17.94-6.53-15.63-3-30.58-2.24-44.59,3.76-3.17,1.36-6.21,2.89-9.52,4.06a42.37,42.37,0,0,1-31.7-1c-5.9-2.53-11.51-5.43-18.32-6.79-15.8-3.14-30.9-2.28-45.11,3.7C32.2,47,28.86,48.5,25.39,49.86a36.18,36.18,0,0,1-14.22,2.2Z"/><text class="cls-4" transform="translate(91.97 64.19) scale(0.93)">LEARNING</text></g></g></svg>